<?xml version="1.0" standalone="no"?>
<!DOCTYPE svg PUBLIC "-//W3C//DTD SVG 20010904//EN"
 "http://www.w3.org/TR/2001/REC-SVG-20010904/DTD/svg10.dtd">
<svg version="1.0" xmlns="http://www.w3.org/2000/svg"
 width="700.000000pt" height="700.000000pt" viewBox="0 0 700.000000 700.000000"
 preserveAspectRatio="xMidYMid meet">
<metadata>
Created by potrace 1.11, written by Peter Selinger 2001-2013
</metadata>
<g transform="translate(0.000000,700.000000) scale(0.100000,-0.100000)"
fill="#000000" stroke="none">
<path d="M3298 6995 c-2 -1 -41 -5 -88 -9 -100 -7 -225 -22 -295 -36 -27 -5
-61 -12 -75 -14 -427 -78 -857 -251 -1250 -504 -80 -52 -319 -227 -330 -243
-3 -3 -25 -23 -50 -44 -84 -69 -229 -214 -365 -365 -93 -103 -287 -374 -355
-495 -153 -272 -219 -414 -301 -652 -33 -96 -82 -266 -94 -321 -2 -9 -8 -37
-14 -62 -11 -49 -13 -63 -35 -195 -34 -204 -40 -302 -40 -570 0 -233 11 -378
39 -545 6 -32 24 -129 29 -155 41 -208 142 -519 227 -703 22 -46 39 -86 39
-88 0 -13 153 -285 213 -379 418 -658 1078 -1177 1814 -1426 103 -35 338 -100
405 -113 13 -2 50 -9 83 -15 33 -6 71 -13 85 -16 14 -3 52 -8 85 -11 33 -3 63
-8 66 -9 15 -10 227 -20 409 -20 188 0 341 8 430 21 144 21 295 48 345 61 33
8 67 16 75 18 100 20 358 107 513 172 122 51 339 160 395 198 20 14 40 25 45
25 4 0 13 5 20 10 7 6 64 45 127 87 246 162 527 410 695 613 21 25 41 47 44
50 17 12 180 233 238 323 252 387 417 793 507 1248 14 70 28 155 32 190 3 35
8 67 10 70 9 17 19 214 18 399 0 188 -6 331 -19 420 -3 19 -7 56 -10 81 -3 25
-7 54 -9 65 -2 10 -11 60 -21 109 -98 525 -337 1054 -671 1480 -43 55 -83 105
-88 112 -214 233 -340 355 -501 484 -419 333 -929 573 -1452 683 -99 21 -244
44 -393 61 -55 7 -526 16 -532 10z m766 -1517 c-9 -29 -83 -276 -164 -548 -82
-272 -171 -571 -199 -664 -28 -93 -51 -172 -51 -175 0 -4 288 -7 641 -7 352 1
645 -2 651 -5 6 -4 4 -14 -6 -25 -8 -11 -414 -532 -902 -1159 -488 -627 -896
-1152 -908 -1166 -11 -14 -61 -78 -110 -143 -49 -64 -91 -116 -92 -116 -4 0 9
45 222 754 112 373 202 681 200 685 -3 4 -293 7 -646 6 -353 0 -644 4 -647 8
-3 5 4 18 15 30 11 12 275 351 587 752 312 402 578 744 591 760 13 17 179 230
369 475 191 245 354 454 363 465 9 11 34 44 55 73 21 28 40 52 42 52 2 0 -3
-24 -11 -52z"/>
</g>
</svg>
